# xmcd
#
# Track frame offsets:
#	150
#	16209
#	29316
#	44099
#	58903
#	77461
#	87304
#	101181
#	126412
#	139399
#	152323
#	193140
#
# Disc length: 2595 seconds
#
# Revision: 1
# Processed by: cddbd v1.5.1PL0 Copyright (c) Steve Scherf et al.
# Submitted via: audiograbber 1.83.01
#
DISCID=a40a210c
DTITLE=Mardi Gras.BB - Introducing The Mighty Three
DYEAR=2005
DGENRE=Country
TTITLE0=Hey There!
TTITLE1=Favorite Nerd
TTITLE2=Liza Marie
TTITLE3=War Crimes
TTITLE4=Berlin Girl
TTITLE5=Cormorant
TTITLE6=Sandbox Love
TTITLE7=Bad July
TTITLE8=Hummingbird
TTITLE9=El Paso
TTITLE10=If There Was Love
TTITLE11=Daten-CD
EXTD=
EXTT0=
EXTT1=
EXTT2=
EXTT3=
EXTT4=
EXTT5=
EXTT6=
EXTT7=
EXTT8=
EXTT9=
EXTT10=
EXTT11=
PLAYORDER=
